# xmcd
#
# Track frame offsets:
#	150
#	11051
#	24360
#	38042
#	51430
#	61994
#	74618
#	87224
#	101279
#	113065
#	125045
#
# Disc length: 1884 seconds
#
# Revision: 0
# Processed by: cddbd v1.5.2PL0 Copyright (c) Steve Scherf et al.
# Submitted via: dBpowerAMP V4.0
#
DISCID=90075a0b
DTITLE=Pete Stanley - Let's Be Lovers
DYEAR=1900
DGENRE=Ballad
TTITLE0=Heaven
TTITLE1=Warrane
TTITLE2=Let's Be Lovers
TTITLE3=Listening To You
TTITLE4=I'm Sorry
TTITLE5=Maryanne Is Calling Me Again
TTITLE6=I Knew I Would Find You Some Day
TTITLE7=Romancing
TTITLE8=My Pretty Senorita
TTITLE9=Waterfall Way
TTITLE10=My Little Man
EXTD=Created with Taste
EXTT0=
EXTT1=
EXTT2=
EXTT3=
EXTT4=
EXTT5=
EXTT6=
EXTT7=
EXTT8=
EXTT9=
EXTT10=
PLAYORDER=
